<svg xmlns="http://www.w3.org/2000/svg" class="railroad" width="1206" height="1966" viewBox="0 0 1206 1966"><style>svg.railroad{background:#fff;font-family:monospace;font-size:13px}.rr-line{stroke:#334;stroke-width:2;fill:none}.rr-cap{fill:#334}.rr-term{fill:#e8f0ff;stroke:#334;stroke-width:2}.rr-nonterm{fill:#fff7e8;stroke:#334;stroke-width:2}.rr-label{fill:#111;text-anchor:middle;dominant-baseline:middle}.rr-comment{fill:#666;font-style:italic;text-anchor:middle;dominant-baseline:middle}.rr-title{fill:#113;font-weight:bold;font-size:15px}.rr-legend{fill:#333;font-size:12px}.rr-legend-tok{fill:#113;font-weight:bold}a:hover .rr-nonterm{fill:#ffe6b3;cursor:pointer}</style><g><g id="stream"><text class="rr-title" x="16" y="31">stream</text><circle class="rr-cap" cx="202.5" cy="42" r="3"/><path class="rr-line" d="M202.5 42V56"/><path class="rr-line" d="M202.5 56V74"/><path class="rr-line" d="M202.5 74V92"/><path class="rr-line" d="M133 92H272"/><path class="rr-line" d="M133 270H272"/><path class="rr-line" d="M202.5 270V288"/><path class="rr-line" d="M133 92V110"/><path class="rr-line" d="M133 110V128"/><path class="rr-line" d="M34 128H232"/><path class="rr-line" d="M34 234H232"/><path class="rr-line" d="M133 234V252"/><path class="rr-line" d="M34 128V146"/><rect class="rr-term" x="16" y="146" width="36" height="26" rx="13" ry="13"/><text class="rr-label" x="34" y="159">DR</text><path class="rr-line" d="M34 172V234"/><path class="rr-line" d="M100 128V146"/><rect class="rr-term" x="82" y="146" width="36" height="26" rx="13" ry="13"/><text class="rr-label" x="100" y="159">DS</text><path class="rr-line" d="M100 172V190"/><a href="#val"><rect class="rr-nonterm" x="78" y="190" width="44" height="26" rx="4" ry="4"/><text class="rr-label" x="100" y="203">val</text></a><path class="rr-line" d="M100 216V234"/><path class="rr-line" d="M166 128V146"/><rect class="rr-term" x="148" y="146" width="36" height="26" rx="13" ry="13"/><text class="rr-label" x="166" y="159">DE</text><path class="rr-line" d="M166 172V234"/><path class="rr-line" d="M232 128V146"/><a href="#val"><rect class="rr-nonterm" x="210" y="146" width="44" height="26" rx="4" ry="4"/><text class="rr-label" x="232" y="159">val</text></a><path class="rr-line" d="M232 172V234"/><path class="rr-line" d="M133 252V270"/><path class="rr-line" d="M272 92V110"/><path class="rr-line" d="M272 110V122"/><path class="rr-line" d="M272 122V270"/><path class="rr-line" d="M202.5 288V306"/><path class="rr-line" d="M202.5 297H308"/><path class="rr-line" d="M202.5 65H308"/><path class="rr-line" d="M308 194V297"/><path class="rr-line" d="M308 65V168"/><rect class="rr-term" x="290" y="168" width="36" height="26" rx="13" ry="13"/><text class="rr-label" x="308" y="181">DE</text><path class="rr-line" d="M202.5 306V320"/><circle class="rr-cap" cx="202.5" cy="320" r="3"/></g><g id="val"><text class="rr-title" x="16" y="369">val</text><circle class="rr-cap" cx="467.5" cy="380" r="3"/><path class="rr-line" d="M467.5 380V394"/><path class="rr-line" d="M467.5 394V412"/><path class="rr-line" d="M315 412H620"/><path class="rr-line" d="M315 634H620"/><path class="rr-line" d="M467.5 634V652"/><path class="rr-line" d="M315 412V430"/><path class="rr-line" d="M315 430V448"/><path class="rr-line" d="M50 448H580"/><path class="rr-line" d="M50 598H580"/><path class="rr-line" d="M315 598V616"/><path class="rr-line" d="M50 448V466"/><rect class="rr-term" x="32" y="466" width="36" height="26" rx="13" ry="13"/><text class="rr-label" x="50" y="479">IN</text><path class="rr-line" d="M50 492V510"/><a href="#indent"><rect class="rr-nonterm" x="16" y="510" width="68" height="26" rx="4" ry="4"/><text class="rr-label" x="50" y="523">indent</text></a><path class="rr-line" d="M50 536V598"/><path class="rr-line" d="M172 448V466"/><rect class="rr-term" x="154" y="466" width="36" height="26" rx="13" ry="13"/><text class="rr-label" x="172" y="479">IN</text><path class="rr-line" d="M172 492V510"/><rect class="rr-term" x="154" y="510" width="36" height="26" rx="13" ry="13"/><text class="rr-label" x="172" y="523">EL</text><path class="rr-line" d="M172 536V554"/><a href="#yamlBlockList"><rect class="rr-nonterm" x="110" y="554" width="124" height="26" rx="4" ry="4"/><text class="rr-label" x="172" y="567">yamlBlockList</text></a><path class="rr-line" d="M172 580V598"/><path class="rr-line" d="M322 448V466"/><rect class="rr-term" x="304" y="466" width="36" height="26" rx="13" ry="13"/><text class="rr-label" x="322" y="479">EL</text><path class="rr-line" d="M322 492V510"/><a href="#yamlBlockList"><rect class="rr-nonterm" x="260" y="510" width="124" height="26" rx="4" ry="4"/><text class="rr-label" x="322" y="523">yamlBlockList</text></a><path class="rr-line" d="M322 536V598"/><path class="rr-line" d="M432 448V466"/><a href="#map"><rect class="rr-nonterm" x="410" y="466" width="44" height="26" rx="4" ry="4"/><text class="rr-label" x="432" y="479">map</text></a><path class="rr-line" d="M432 492V598"/><path class="rr-line" d="M506 448V466"/><a href="#list"><rect class="rr-nonterm" x="480" y="466" width="52" height="26" rx="4" ry="4"/><text class="rr-label" x="506" y="479">list</text></a><path class="rr-line" d="M506 492V598"/><path class="rr-line" d="M580 448V466"/><rect class="rr-term" x="558" y="466" width="44" height="26" rx="13" ry="13"/><text class="rr-label" x="580" y="479">VAL</text><path class="rr-line" d="M580 492V598"/><path class="rr-line" d="M315 616V634"/><path class="rr-line" d="M620 412V430"/><path class="rr-line" d="M620 430V442"/><path class="rr-line" d="M620 442V634"/><path class="rr-line" d="M467.5 652V670"/><a href="#list"><rect class="rr-nonterm" x="441.5" y="670" width="52" height="26" rx="4" ry="4"/><text class="rr-label" x="467.5" y="683">list</text></a><path class="rr-line" d="M467.5 696V710"/><circle class="rr-cap" cx="467.5" cy="710" r="3"/></g><g id="map"><text class="rr-title" x="16" y="759">map</text><circle class="rr-cap" cx="136" cy="770" r="3"/><path class="rr-line" d="M136 770V784"/><path class="rr-line" d="M136 784V802"/><path class="rr-line" d="M34 802H238"/><path class="rr-line" d="M34 908H238"/><path class="rr-line" d="M136 908V926"/><path class="rr-line" d="M34 802V820"/><rect class="rr-term" x="16" y="820" width="36" height="26" rx="13" ry="13"/><text class="rr-label" x="34" y="833">IN</text><path class="rr-line" d="M34 846V908"/><path class="rr-line" d="M93 802V820"/><rect class="rr-term" x="78" y="820" width="30" height="26" rx="13" ry="13"/><text class="rr-label" x="93" y="833">{</text><path class="rr-line" d="M93 846V908"/><path class="rr-line" d="M160 802V820"/><rect class="rr-term" x="145" y="820" width="30" height="26" rx="13" ry="13"/><text class="rr-label" x="160" y="833">{</text><path class="rr-line" d="M160 846V864"/><a href="#pair"><rect class="rr-nonterm" x="134" y="864" width="52" height="26" rx="4" ry="4"/><text class="rr-label" x="160" y="877">pair</text></a><path class="rr-line" d="M160 890V908"/><path class="rr-line" d="M238 802V820"/><a href="#pair"><rect class="rr-nonterm" x="212" y="820" width="52" height="26" rx="4" ry="4"/><text class="rr-label" x="238" y="833">pair</text></a><path class="rr-line" d="M238 846V908"/><path class="rr-line" d="M136 926V944"/><rect class="rr-term" x="121" y="944" width="30" height="26" rx="13" ry="13"/><text class="rr-label" x="136" y="957">}</text><path class="rr-line" d="M136 970V984"/><circle class="rr-cap" cx="136" cy="984" r="3"/></g><g id="list"><text class="rr-title" x="16" y="1033">list</text><circle class="rr-cap" cx="109" cy="1044" r="3"/><path class="rr-line" d="M109 1044V1058"/><path class="rr-line" d="M109 1058V1076"/><path class="rr-line" d="M42 1076H176"/><path class="rr-line" d="M42 1182H176"/><path class="rr-line" d="M109 1182V1200"/><path class="rr-line" d="M42 1076V1094"/><a href="#elem"><rect class="rr-nonterm" x="16" y="1094" width="52" height="26" rx="4" ry="4"/><text class="rr-label" x="42" y="1107">elem</text></a><path class="rr-line" d="M42 1120V1182"/><path class="rr-line" d="M109 1076V1094"/><rect class="rr-term" x="94" y="1094" width="30" height="26" rx="13" ry="13"/><text class="rr-label" x="109" y="1107">[</text><path class="rr-line" d="M109 1120V1182"/><path class="rr-line" d="M176 1076V1094"/><rect class="rr-term" x="161" y="1094" width="30" height="26" rx="13" ry="13"/><text class="rr-label" x="176" y="1107">[</text><path class="rr-line" d="M176 1120V1138"/><a href="#elem"><rect class="rr-nonterm" x="150" y="1138" width="52" height="26" rx="4" ry="4"/><text class="rr-label" x="176" y="1151">elem</text></a><path class="rr-line" d="M176 1164V1182"/><path class="rr-line" d="M109 1200V1218"/><rect class="rr-term" x="94" y="1218" width="30" height="26" rx="13" ry="13"/><text class="rr-label" x="109" y="1231">]</text><path class="rr-line" d="M109 1244V1258"/><circle class="rr-cap" cx="109" cy="1258" r="3"/></g><g id="pair"><text class="rr-title" x="16" y="1307">pair</text><circle class="rr-cap" cx="259.25" cy="1318" r="3"/><path class="rr-line" d="M259.25 1318V1332"/><path class="rr-line" d="M259.25 1332V1350"/><path class="rr-line" d="M259.25 1350V1368"/><path class="rr-line" d="M174.5 1368H344"/><path class="rr-line" d="M174.5 1634H344"/><path class="rr-line" d="M259.25 1634V1652"/><path class="rr-line" d="M174.5 1368V1386"/><path class="rr-line" d="M174.5 1386V1404"/><path class="rr-line" d="M38 1404H311"/><path class="rr-line" d="M38 1598H311"/><path class="rr-line" d="M174.5 1598V1616"/><path class="rr-line" d="M38 1404V1422"/><rect class="rr-term" x="16" y="1422" width="44" height="26" rx="13" ry="13"/><text class="rr-label" x="38" y="1435">KEY</text><path class="rr-line" d="M38 1448V1598"/><path class="rr-line" d="M108 1404V1422"/><rect class="rr-term" x="90" y="1422" width="36" height="26" rx="13" ry="13"/><text class="rr-label" x="108" y="1435">QM</text><path class="rr-line" d="M108 1448V1466"/><rect class="rr-term" x="86" y="1466" width="44" height="26" rx="13" ry="13"/><text class="rr-label" x="108" y="1479">KEY</text><path class="rr-line" d="M108 1492V1510"/><rect class="rr-term" x="90" y="1510" width="36" height="26" rx="13" ry="13"/><text class="rr-label" x="108" y="1523">CL</text><path class="rr-line" d="M108 1536V1554"/><a href="#val"><rect class="rr-nonterm" x="86" y="1554" width="44" height="26" rx="4" ry="4"/><text class="rr-label" x="108" y="1567">val</text></a><path class="rr-line" d="M108 1580V1598"/><path class="rr-line" d="M178 1404V1422"/><rect class="rr-term" x="160" y="1422" width="36" height="26" rx="13" ry="13"/><text class="rr-label" x="178" y="1435">QM</text><path class="rr-line" d="M178 1448V1466"/><rect class="rr-term" x="156" y="1466" width="44" height="26" rx="13" ry="13"/><text class="rr-label" x="178" y="1479">KEY</text><path class="rr-line" d="M178 1492V1598"/><path class="rr-line" d="M248 1404V1422"/><rect class="rr-term" x="226" y="1422" width="44" height="26" rx="13" ry="13"/><text class="rr-label" x="248" y="1435">KEY</text><path class="rr-line" d="M248 1448V1466"/><rect class="rr-term" x="230" y="1466" width="36" height="26" rx="13" ry="13"/><text class="rr-label" x="248" y="1479">CL</text><path class="rr-line" d="M248 1492V1510"/><a href="#val"><rect class="rr-nonterm" x="226" y="1510" width="44" height="26" rx="4" ry="4"/><text class="rr-label" x="248" y="1523">val</text></a><path class="rr-line" d="M248 1536V1598"/><path class="rr-line" d="M311 1404V1422"/><rect class="rr-term" x="296" y="1422" width="30" height="26" rx="13" ry="13"/><text class="rr-label" x="311" y="1435">,</text><path class="rr-line" d="M311 1448V1598"/><path class="rr-line" d="M174.5 1616V1634"/><path class="rr-line" d="M344 1368V1386"/><path class="rr-line" d="M344 1386V1398"/><path class="rr-line" d="M344 1398V1634"/><path class="rr-line" d="M259.25 1652V1670"/><path class="rr-line" d="M259.25 1661H377"/><path class="rr-line" d="M259.25 1341H377"/><path class="rr-line" d="M377 1514V1661"/><path class="rr-line" d="M377 1341V1488"/><rect class="rr-term" x="362" y="1488" width="30" height="26" rx="13" ry="13"/><text class="rr-label" x="377" y="1501">,</text><path class="rr-line" d="M259.25 1670V1688"/><rect class="rr-term" x="244.25" y="1688" width="30" height="26" rx="13" ry="13"/><text class="rr-label" x="259.25" y="1701">]</text><path class="rr-line" d="M259.25 1714V1728"/><circle class="rr-cap" cx="259.25" cy="1728" r="3"/></g><g id="elem"><text class="rr-title" x="676" y="31">elem</text><circle class="rr-cap" cx="1021.5" cy="42" r="3"/><path class="rr-line" d="M1021.5 42V56"/><path class="rr-line" d="M1021.5 56V74"/><path class="rr-line" d="M1021.5 74V92"/><path class="rr-line" d="M911 92H1132"/><path class="rr-line" d="M911 314H1132"/><path class="rr-line" d="M1021.5 314V332"/><path class="rr-line" d="M911 92V110"/><path class="rr-line" d="M911 110V128"/><path class="rr-line" d="M730 128H1092"/><path class="rr-line" d="M730 278H1092"/><path class="rr-line" d="M911 278V296"/><path class="rr-line" d="M730 128V146"/><a href="#yamlElemMap"><rect class="rr-nonterm" x="676" y="146" width="108" height="26" rx="4" ry="4"/><text class="rr-label" x="730" y="159">yamlElemMap</text></a><path class="rr-line" d="M730 172V278"/><path class="rr-line" d="M864 128V146"/><rect class="rr-term" x="846" y="146" width="36" height="26" rx="13" ry="13"/><text class="rr-label" x="864" y="159">QM</text><path class="rr-line" d="M864 172V190"/><a href="#yamlElemMap"><rect class="rr-nonterm" x="810" y="190" width="108" height="26" rx="4" ry="4"/><text class="rr-label" x="864" y="203">yamlElemMap</text></a><path class="rr-line" d="M864 216V278"/><path class="rr-line" d="M959 128V146"/><rect class="rr-term" x="944" y="146" width="30" height="26" rx="13" ry="13"/><text class="rr-label" x="959" y="159">,</text><path class="rr-line" d="M959 172V278"/><path class="rr-line" d="M1022 128V146"/><rect class="rr-term" x="1000" y="146" width="44" height="26" rx="13" ry="13"/><text class="rr-label" x="1022" y="159">KEY</text><path class="rr-line" d="M1022 172V190"/><rect class="rr-term" x="1004" y="190" width="36" height="26" rx="13" ry="13"/><text class="rr-label" x="1022" y="203">CL</text><path class="rr-line" d="M1022 216V234"/><a href="#val"><rect class="rr-nonterm" x="1000" y="234" width="44" height="26" rx="4" ry="4"/><text class="rr-label" x="1022" y="247">val</text></a><path class="rr-line" d="M1022 260V278"/><path class="rr-line" d="M1092 128V146"/><a href="#val"><rect class="rr-nonterm" x="1070" y="146" width="44" height="26" rx="4" ry="4"/><text class="rr-label" x="1092" y="159">val</text></a><path class="rr-line" d="M1092 172V278"/><path class="rr-line" d="M911 296V314"/><path class="rr-line" d="M1132 92V110"/><path class="rr-line" d="M1132 110V122"/><path class="rr-line" d="M1132 122V314"/><path class="rr-line" d="M1021.5 332V350"/><path class="rr-line" d="M1021.5 341H1165"/><path class="rr-line" d="M1021.5 65H1165"/><path class="rr-line" d="M1165 216V341"/><path class="rr-line" d="M1165 65V190"/><rect class="rr-term" x="1150" y="190" width="30" height="26" rx="13" ry="13"/><text class="rr-label" x="1165" y="203">,</text><path class="rr-line" d="M1021.5 350V368"/><rect class="rr-term" x="1006.5" y="368" width="30" height="26" rx="13" ry="13"/><text class="rr-label" x="1021.5" y="381">}</text><path class="rr-line" d="M1021.5 394V408"/><circle class="rr-cap" cx="1021.5" cy="408" r="3"/></g><g id="indent"><text class="rr-title" x="676" y="457">indent</text><circle class="rr-cap" cx="772" cy="468" r="3"/><path class="rr-line" d="M772 468V482"/><path class="rr-line" d="M772 482V500"/><path class="rr-line" d="M698 500H846"/><path class="rr-line" d="M698 606H846"/><path class="rr-line" d="M772 606V624"/><path class="rr-line" d="M698 500V518"/><a href="#map"><rect class="rr-nonterm" x="676" y="518" width="44" height="26" rx="4" ry="4"/><text class="rr-label" x="698" y="531">map</text></a><path class="rr-line" d="M698 544V606"/><path class="rr-line" d="M772 500V518"/><rect class="rr-term" x="754" y="518" width="36" height="26" rx="13" ry="13"/><text class="rr-label" x="772" y="531">EL</text><path class="rr-line" d="M772 544V562"/><a href="#list"><rect class="rr-nonterm" x="746" y="562" width="52" height="26" rx="4" ry="4"/><text class="rr-label" x="772" y="575">list</text></a><path class="rr-line" d="M772 588V606"/><path class="rr-line" d="M846 500V518"/><rect class="rr-term" x="824" y="518" width="44" height="26" rx="13" ry="13"/><text class="rr-label" x="846" y="531">KEY</text><path class="rr-line" d="M846 544V606"/><path class="rr-line" d="M772 624V638"/><circle class="rr-cap" cx="772" cy="638" r="3"/></g><g id="yamlBlockList"><text class="rr-title" x="676" y="687">yamlBlockList</text><circle class="rr-cap" cx="781" cy="698" r="3"/><path class="rr-line" d="M781 698V712"/><path class="rr-line" d="M781 712V730"/><path class="rr-line" d="M730 730H832"/><path class="rr-line" d="M730 792H832"/><path class="rr-line" d="M781 792V810"/><path class="rr-line" d="M730 730V748"/><a href="#yamlElemMap"><rect class="rr-nonterm" x="676" y="748" width="108" height="26" rx="4" ry="4"/><text class="rr-label" x="730" y="761">yamlElemMap</text></a><path class="rr-line" d="M730 774V792"/><path class="rr-line" d="M832 730V748"/><a href="#val"><rect class="rr-nonterm" x="810" y="748" width="44" height="26" rx="4" ry="4"/><text class="rr-label" x="832" y="761">val</text></a><path class="rr-line" d="M832 774V792"/><path class="rr-line" d="M781 810V828"/><a href="#yamlBlockElem"><rect class="rr-nonterm" x="719" y="828" width="124" height="26" rx="4" ry="4"/><text class="rr-label" x="781" y="841">yamlBlockElem</text></a><path class="rr-line" d="M781 854V868"/><circle class="rr-cap" cx="781" cy="868" r="3"/></g><g id="yamlBlockElem"><text class="rr-title" x="676" y="917">yamlBlockElem</text><circle class="rr-cap" cx="781" cy="928" r="3"/><path class="rr-line" d="M781 928V942"/><path class="rr-line" d="M781 942V960"/><path class="rr-line" d="M781 960V978"/><path class="rr-line" d="M730 978H832"/><path class="rr-line" d="M730 1040H832"/><path class="rr-line" d="M781 1040V1058"/><path class="rr-line" d="M730 978V996"/><a href="#yamlElemMap"><rect class="rr-nonterm" x="676" y="996" width="108" height="26" rx="4" ry="4"/><text class="rr-label" x="730" y="1009">yamlElemMap</text></a><path class="rr-line" d="M730 1022V1040"/><path class="rr-line" d="M832 978V996"/><a href="#val"><rect class="rr-nonterm" x="810" y="996" width="44" height="26" rx="4" ry="4"/><text class="rr-label" x="832" y="1009">val</text></a><path class="rr-line" d="M832 1022V1040"/><path class="rr-line" d="M781 1058V1076"/><path class="rr-line" d="M781 1067H882"/><path class="rr-line" d="M781 951H882"/><path class="rr-line" d="M882 1022V1067"/><path class="rr-line" d="M882 951V996"/><rect class="rr-term" x="864" y="996" width="36" height="26" rx="13" ry="13"/><text class="rr-label" x="882" y="1009">EL</text><path class="rr-line" d="M781 1076V1090"/><circle class="rr-cap" cx="781" cy="1090" r="3"/></g><g id="yamlElemMap"><text class="rr-title" x="676" y="1139">yamlElemMap</text><circle class="rr-cap" cx="734" cy="1150" r="3"/><path class="rr-line" d="M734 1150V1164"/><rect class="rr-term" x="712" y="1164" width="44" height="26" rx="13" ry="13"/><text class="rr-label" x="734" y="1177">KEY</text><path class="rr-line" d="M734 1190V1208"/><rect class="rr-term" x="716" y="1208" width="36" height="26" rx="13" ry="13"/><text class="rr-label" x="734" y="1221">CL</text><path class="rr-line" d="M734 1234V1252"/><a href="#val"><rect class="rr-nonterm" x="712" y="1252" width="44" height="26" rx="4" ry="4"/><text class="rr-label" x="734" y="1265">val</text></a><path class="rr-line" d="M734 1278V1296"/><a href="#yamlElemPair"><rect class="rr-nonterm" x="676" y="1296" width="116" height="26" rx="4" ry="4"/><text class="rr-label" x="734" y="1309">yamlElemPair</text></a><path class="rr-line" d="M734 1322V1336"/><circle class="rr-cap" cx="734" cy="1336" r="3"/></g><g id="yamlElemPair"><text class="rr-title" x="676" y="1385">yamlElemPair</text><circle class="rr-cap" cx="698" cy="1396" r="3"/><path class="rr-line" d="M698 1396V1410"/><path class="rr-line" d="M698 1410V1428"/><rect class="rr-term" x="676" y="1428" width="44" height="26" rx="13" ry="13"/><text class="rr-label" x="698" y="1441">KEY</text><path class="rr-line" d="M698 1454V1472"/><rect class="rr-term" x="680" y="1472" width="36" height="26" rx="13" ry="13"/><text class="rr-label" x="698" y="1485">CL</text><path class="rr-line" d="M698 1498V1516"/><a href="#val"><rect class="rr-nonterm" x="676" y="1516" width="44" height="26" rx="4" ry="4"/><text class="rr-label" x="698" y="1529">val</text></a><path class="rr-line" d="M698 1542V1560"/><path class="rr-line" d="M698 1551H748"/><path class="rr-line" d="M698 1419H748"/><path class="rr-line" d="M748 1498V1551"/><path class="rr-line" d="M748 1419V1472"/><rect class="rr-term" x="730" y="1472" width="36" height="26" rx="13" ry="13"/><text class="rr-label" x="748" y="1485">IN</text><path class="rr-line" d="M698 1560V1574"/><circle class="rr-cap" cx="698" cy="1574" r="3"/></g><text class="rr-title" x="16" y="1777">Tokens</text><text class="rr-legend" x="16" y="1799"><tspan class="rr-legend-tok">CL</tspan>  —  :</text><text class="rr-legend" x="16" y="1817"><tspan class="rr-legend-tok">DE</tspan>  —  DE token</text><text class="rr-legend" x="16" y="1835"><tspan class="rr-legend-tok">DR</tspan>  —  DR token</text><text class="rr-legend" x="16" y="1853"><tspan class="rr-legend-tok">DS</tspan>  —  DS token</text><text class="rr-legend" x="16" y="1871"><tspan class="rr-legend-tok">EL</tspan>  —  EL token</text><text class="rr-legend" x="16" y="1889"><tspan class="rr-legend-tok">IN</tspan>  —  IN token</text><text class="rr-legend" x="16" y="1907"><tspan class="rr-legend-tok">KEY</tspan>  —  map key (text, number, string, or value)</text><text class="rr-legend" x="16" y="1925"><tspan class="rr-legend-tok">QM</tspan>  —  QM token</text><text class="rr-legend" x="16" y="1943"><tspan class="rr-legend-tok">VAL</tspan>  —  a value (text, number, string, or value)</text></g></svg>